<?xml version="1.0" encoding="UTF-8"?>
<svg version="1.1" xmlns="http://www.w3.org/2000/svg" width="299" height="78">
<path d="M0 0 C2.66229087 1.33114544 2.71469036 2.44716566 3.69140625 5.21875 C3.99626953 6.06824219 4.30113281 6.91773438 4.61523438 7.79296875 C4.92783203 8.68628906 5.24042969 9.57960938 5.5625 10.5 C6.1864371 12.26125626 6.81262082 14.0217188 7.44140625 15.78125 C7.85434937 16.9578418 7.85434937 16.9578418 8.27563477 18.15820312 C8.85302618 19.98610603 8.85302618 19.98610603 10 21 C10.23710693 20.42967041 10.47421387 19.85934082 10.71850586 19.27172852 C11.78895634 16.70091618 12.86317581 14.1316958 13.9375 11.5625 C14.31068359 10.66466797 14.68386719 9.76683594 15.06835938 8.84179688 C15.42607422 7.98779297 15.78378906 7.13378906 16.15234375 6.25390625 C16.6472229 5.06776733 16.6472229 5.06776733 17.15209961 3.85766602 C18 2 18 2 19 1 C20.66617115 0.95936168 22.33388095 0.957279 24 1 C25.38678713 5.16036138 23.71806356 7.69429684 22.03515625 11.51171875 C21.72299667 12.23994339 21.4108371 12.96816803 21.08921814 13.71846008 C20.08927623 16.04545833 19.07609742 18.36642187 18.0625 20.6875 C17.38258445 22.26329286 16.70353693 23.83946056 16.02539062 25.41601562 C14.36030491 29.28176673 12.68332435 33.14215795 11 37 C10.01 37 9.02 37 8 37 C4.535 27.595 4.535 27.595 1 18 C-1.30223882 23.18003735 -3.58482422 28.32999187 -5.75 33.5625 C-6.17796875 34.59503906 -6.6059375 35.62757812 -7.046875 36.69140625 C-7.36140625 37.45324219 -7.6759375 38.21507812 -8 39 C-10.66700713 35.78806794 -12.13788006 32.56989907 -13.6640625 28.6953125 C-14.14617187 27.47199219 -14.62828125 26.24867187 -15.125 24.98828125 C-15.37121094 24.3535791 -15.61742187 23.71887695 -15.87109375 23.06494141 C-16.62123485 21.13468844 -17.38408175 19.2098178 -18.1484375 17.28515625 C-20.2791488 11.83809591 -22.21289864 6.82147633 -23 1 C-21.02 1 -19.04 1 -17 1 C-14.36 7.6 -11.72 14.2 -9 21 C-6.45872895 15.9174579 -4.22099611 11.25598964 -2.25 6 C-1.82203125 4.865625 -1.3940625 3.73125 -0.953125 2.5625 C-0.63859375 1.716875 -0.3240625 0.87125 0 0 Z " fill="#F3F3F3" transform="translate(193,0)"/>
<path d="M0 0 C3.05606843 1.57896869 4.50627721 2.74966316 5.625 6.03125 C5.645625 6.77375 5.66625 7.51625 5.6875 8.28125 C3.7075 9.27125 3.7075 9.27125 1.6875 10.28125 C0.841875 9.62125 -0.00375 8.96125 -0.875 8.28125 C-4.8390716 5.97488107 -6.8022723 5.70722102 -11.3125 6.28125 C-14.18555972 7.68585697 -16.05760999 9.02635999 -18.3125 11.28125 C-19.29251847 16.26301055 -19.91868179 19.72043187 -17.3125 24.28125 C-15.05419396 27.01961511 -13.44964603 27.76068407 -9.9375 28.15625 C-6.71801605 28.41842296 -5.37240797 28.30621165 -2.3125 27.03125 C-0.05592172 25.35438101 -0.05592172 25.35438101 0.6875 22.28125 C-1.9525 22.28125 -4.5925 22.28125 -7.3125 22.28125 C-7.3125 20.30125 -7.3125 18.32125 -7.3125 16.28125 C-4.19620851 15.24248617 -1.9530571 15.14763375 1.3125 15.15625 C2.29476562 15.15367188 3.27703125 15.15109375 4.2890625 15.1484375 C6.6875 15.28125 6.6875 15.28125 7.6875 16.28125 C8.31421144 22.23500865 7.55152128 25.67119175 4.1015625 30.5859375 C1.12971904 34.14886584 -1.56000252 35.08993708 -6 36.21875 C-11.28828073 36.68948711 -15.82562908 35.00266827 -20.3125 32.28125 C-24.49976473 28.06530537 -26.44703538 23.48513313 -26.6875 17.59375 C-26.63048927 12.01484251 -24.88947805 8.49003124 -21.3125 4.28125 C-15.12310076 -1.33239117 -8.13093661 -2.527183 0 0 Z " fill="#F1F1F1" transform="translate(98.3125,1.71875)"/>
<path d="M0 0 C1.98 0 3.96 0 6 0 C6 4.29 6 8.58 6 13 C10.29 13 14.58 13 19 13 C19.33 8.71 19.66 4.42 20 0 C21.65 0 23.3 0 25 0 C26 1 26 1 26.11352539 4.32641602 C26.11336629 5.80225556 26.10767314 7.27810069 26.09765625 8.75390625 C26.0962413 9.52935287 26.09482635 10.3047995 26.09336853 11.10374451 C26.08775345 13.59003494 26.07519846 16.0762366 26.0625 18.5625 C26.05748694 20.24413933 26.0529237 21.92578006 26.04882812 23.60742188 C26.03777913 27.73831566 26.02050445 31.86914276 26 36 C24.02 36 22.04 36 20 36 C20 30.72 20 25.44 20 20 C15.38 20 10.76 20 6 20 C6 25.28 6 30.56 6 36 C4.02 36 2.04 36 0 36 C0 24.12 0 12.24 0 0 Z " fill="#F0F0F0" transform="translate(126,1)"/>
<path d="M0 0 C2.475 0.495 2.475 0.495 5 1 C5.33 4.96 5.66 8.92 6 13 C9.96 13 13.92 13 18 13 C17.9690625 10.0609375 17.9690625 10.0609375 17.9375 7.0625 C17.91622812 5.04167124 17.92755947 3.01964199 18 1 C19 0 19 0 21.5625 -0.0625 C22.7690625 -0.0315625 22.7690625 -0.0315625 24 0 C24.94083457 3.97495598 25.1288993 7.68165232 25.1328125 11.76171875 C25.13410156 13.04498047 25.13539062 14.32824219 25.13671875 15.65039062 C25.13357666 16.64389526 25.13357666 16.64389526 25.13037109 17.6574707 C25.12498904 19.69164389 25.13034589 21.72559899 25.13671875 23.75976562 C25.13542969 25.03916016 25.13414063 26.31855469 25.1328125 27.63671875 C25.13168457 28.80936279 25.13055664 29.98200684 25.12939453 31.19018555 C25 34 25 34 24 36 C22.33388095 36.042721 20.66617115 36.04063832 19 36 C18 35 18 35 17.90234375 31.62109375 C17.90901631 30.22652923 17.92097468 28.83198257 17.9375 27.4375 C17.94201172 26.72658203 17.94652344 26.01566406 17.95117188 25.28320312 C17.96299136 23.52209987 17.98092737 21.76103964 18 20 C13.71 20 9.42 20 5 20 C5 24.95 5 29.9 5 35 C2.525 35.495 2.525 35.495 0 36 C0 24.12 0 12.24 0 0 Z " fill="#E1E1E1" transform="translate(0,1)"/>
<path d="M0 0 C3.25608554 2.68619356 4.67900629 6.20243646 6.35546875 9.96875 C6.66196854 10.64546753 6.96846832 11.32218506 7.28425598 12.01940918 C7.92874501 13.4468293 8.56984452 14.87578405 9.20776367 16.30615234 C10.18580485 18.49620418 11.17702155 20.6799325 12.16992188 22.86328125 C12.79506631 24.25224641 13.41944176 25.64155799 14.04296875 27.03125 C14.3397905 27.68444214 14.63661224 28.33763428 14.94242859 29.01062012 C16.20576988 31.8618536 17 33.84317381 17 37 C15.02 37 13.04 37 11 37 C8 31.25 8 31.25 8 29 C3.05 29.33 -1.9 29.66 -7 30 C-7.99 32.31 -8.98 34.62 -10 37 C-11.98 37 -13.96 37 -16 37 C-15.42677101 32.19231744 -13.94803395 28.21536135 -11.875 23.88671875 C-11.56804199 23.23169876 -11.26108398 22.57667877 -10.94482422 21.90180969 C-10.29935538 20.52788112 -9.65037063 19.15559933 -8.99804688 17.78491211 C-7.99631854 15.67976336 -7.00508858 13.56992165 -6.015625 11.45898438 C-5.38601518 10.12211379 -4.75582739 8.78551523 -4.125 7.44921875 C-3.82706543 6.81698898 -3.52913086 6.18475922 -3.22216797 5.53337097 C-1.11767285 1.11767285 -1.11767285 1.11767285 0 0 Z M0 13 C-1.98 17.455 -1.98 17.455 -4 22 C-1.36 22 1.28 22 4 22 C3.46930939 18.17902761 2.50298434 15.93828597 0 13 Z " fill="#F9F9F9" transform="translate(245,0)"/>
<path d="M0 0 C2.7578125 -0.375 2.7578125 -0.375 6 0 C8.1171875 2.625 8.1171875 2.625 9.875 6 C10.47054688 7.11375 11.06609375 8.2275 11.6796875 9.375 C12.33324219 10.674375 12.33324219 10.674375 13 12 C15.0633337 9.35225387 16.75530695 6.68501425 18.375 3.75 C19.66015625 1.640625 19.66015625 1.640625 21 0 C23.8125 -0.5 23.8125 -0.5 26 0 C26.72554365 5.25011446 24.21023708 8.2269531 21.5 12.4375 C16.67434875 20.3416156 16.22167922 25.75744078 17 35 C16 36 16 36 13.5 36.125 C11 36 11 36 10 35 C10.01920159 33.36146467 10.03932317 31.7229352 10.06396484 30.08447266 C10.05689779 20.02804838 6.5243965 13.60950095 1.0546875 5.3515625 C0.37664062 4.24554688 -0.30140625 3.13953125 -1 2 C-0.67 1.34 -0.34 0.68 0 0 Z " fill="#F3F3F3" transform="translate(273,1)"/>
<path d="M0 0 C0.99 0 1.98 0 3 0 C3.33 3.96 3.66 7.92 4 12 C8.95 12 13.9 12 19 12 C19.33 8.04 19.66 4.08 20 0 C20.99 0 21.98 0 23 0 C23 10.56 23 21.12 23 32 C22.01 32 21.02 32 20 32 C20.01160156 31.18015625 20.02320312 30.3603125 20.03515625 29.515625 C20.04417969 28.43796875 20.05320312 27.3603125 20.0625 26.25 C20.07410156 25.18265625 20.08570312 24.1153125 20.09765625 23.015625 C20.0997216 19.80102903 20.0997216 19.80102903 19 16 C13.72 16.33 8.44 16.66 3 17 C3 21.95 3 26.9 3 32 C2.01 32 1.02 32 0 32 C0 21.44 0 10.88 0 0 Z " fill="#FCFCFC" transform="translate(0,3)"/>
<path d="M0 0 C1.98 0 3.96 0 6 0 C6 11.88 6 23.76 6 36 C4.02 36 2.04 36 0 36 C0 24.12 0 12.24 0 0 Z " fill="#F1F1F1" transform="translate(46,1)"/>
<path d="M0 0 C0.98226562 -0.00257812 1.96453125 -0.00515625 2.9765625 -0.0078125 C5.375 0.125 5.375 0.125 6.375 1.125 C7.10003447 8.01282745 5.46671728 11.63040823 1.375 17.125 C0.715 16.795 0.055 16.465 -0.625 16.125 C-0.295 14.805 0.035 13.485 0.375 12.125 C-0.65625 12.785 -1.6875 13.445 -2.75 14.125 C-6.24846875 16.09201054 -8.55939099 16.8026015 -12.625 16.125 C-16.41920129 14.63442092 -19.11843964 13.09407199 -21.0625 9.375 C-21.248125 8.6325 -21.43375 7.89 -21.625 7.125 C-20.820625 7.929375 -20.01625 8.73375 -19.1875 9.5625 C-15.35961508 12.74635689 -11.54156321 13.45095999 -6.625 13.125 C-3.62379395 12.0613351 -3.62379395 12.0613351 -1.625 10.125 C-1.295 9.135 -0.965 8.145 -0.625 7.125 C-3.265 7.125 -5.905 7.125 -8.625 7.125 C-8.625 5.145 -8.625 3.165 -8.625 1.125 C-5.50870851 0.08623617 -3.2655571 -0.00861625 0 0 Z " fill="#E9E9E9" transform="translate(99.625,16.875)"/>
<path d="M0 0 C2.32947183 2.11770166 3.88750845 4.03335588 5 7 C4.67 7.99 4.34 8.98 4 10 C3.01 8.02 2.02 6.04 1 4 C-0.99479818 6.99219727 -2.48654345 9.95719367 -4.0390625 13.19921875 C-4.32478119 13.79426712 -4.61049988 14.38931549 -4.90487671 15.00239563 C-5.81371297 16.8964186 -6.71939498 18.79193026 -7.625 20.6875 C-8.24197982 21.97470894 -8.85916499 23.26181947 -9.4765625 24.54882812 C-10.98675639 27.69808185 -12.49412576 30.84867806 -14 34 C-13.01 34.33 -12.02 34.66 -11 35 C-10.71125 34.05125 -10.4225 33.1025 -10.125 32.125 C-9 29 -9 29 -7 27 C-4.41935871 26.85502015 -1.95056116 26.81322455 0.625 26.875 C1.68460938 26.88853516 1.68460938 26.88853516 2.765625 26.90234375 C4.51056098 26.92592397 6.25532295 26.96179539 8 27 C8.94401042 28.79036458 9.88802083 30.58072917 10.83203125 32.37109375 C11.99019799 34.32267987 11.99019799 34.32267987 15 35 C14.55527344 34.08476563 14.11054688 33.16953125 13.65234375 32.2265625 C12.80349609 30.44378906 12.80349609 30.44378906 11.9375 28.625 C11.08478516 26.84996094 11.08478516 26.84996094 10.21484375 25.0390625 C9.81394531 24.03617188 9.41304687 23.03328125 9 22 C9.33 21.34 9.66 20.68 10 20 C11.17407021 22.26727333 12.33939739 24.53834624 13.5 26.8125 C13.83386719 27.45509766 14.16773438 28.09769531 14.51171875 28.75976562 C16.00239084 31.69547699 17 33.66126517 17 37 C15.02 37 13.04 37 11 37 C8 31.25 8 31.25 8 29 C3.05 29.33 -1.9 29.66 -7 30 C-7.99 32.31 -8.98 34.62 -10 37 C-11.98 37 -13.96 37 -16 37 C-15.42677101 32.19231744 -13.94803395 28.21536135 -11.875 23.88671875 C-11.56804199 23.23169876 -11.26108398 22.57667877 -10.94482422 21.90180969 C-10.29935538 20.52788112 -9.65037063 19.15559933 -8.99804688 17.78491211 C-7.99631854 15.67976336 -7.00508858 13.56992165 -6.015625 11.45898438 C-5.38601518 10.12211379 -4.75582739 8.78551523 -4.125 7.44921875 C-3.82706543 6.81698898 -3.52913086 6.18475922 -3.22216797 5.53337097 C-1.11767285 1.11767285 -1.11767285 1.11767285 0 0 Z " fill="#E3E3E3" transform="translate(245,0)"/>
<path d="M0 0 C0.99 0.66 1.98 1.32 3 2 C3.22107787 4.7885289 3.28107535 7.34653181 3.1875 10.125 C3.17396484 10.87910156 3.16042969 11.63320312 3.14648438 12.41015625 C3.11109985 14.27374127 3.05729167 16.13695978 3 18 C1.68 18 0.36 18 -1 18 C-1 15.69 -1 13.38 -1 11 C-1.99 11.33 -2.98 11.66 -4 12 C-4.99 11.67 -5.98 11.34 -7 11 C-7 13.64 -7 16.28 -7 19 C-7.99 19 -8.98 19 -10 19 C-11.22517308 13.33357449 -11.09228867 7.76291482 -11 2 C-9.68 1.67 -8.36 1.34 -7 1 C-7 2.98 -7 4.96 -7 7 C-5.02 7 -3.04 7 -1 7 C-1.020625 6.030625 -1.04125 5.06125 -1.0625 4.0625 C-1 1 -1 1 0 0 Z " fill="#DCDCDC" transform="translate(213,58)"/>
<path d="M0 0 C0.66 0.33 1.32 0.66 2 1 C2.4140625 3.72265625 2.4140625 3.72265625 2.625 7.0625 C2.69976562 8.16722656 2.77453125 9.27195312 2.8515625 10.41015625 C2.90054688 11.26480469 2.94953125 12.11945313 3 13 C4.65 13.33 6.3 13.66 8 14 C8 9.71 8 5.42 8 1 C8.99 0.67 9.98 0.34 11 0 C12.62581586 4.87744757 12.60682934 10.00613218 11.125 14.875 C10 17 10 17 8 19 C1.53846154 18.53846154 1.53846154 18.53846154 -1 16 C-1.17163731 13.43707683 -1.23264558 10.99654143 -1.1875 8.4375 C-1.18685547 7.73947266 -1.18621094 7.04144531 -1.18554688 6.32226562 C-1.14031158 1.14031158 -1.14031158 1.14031158 0 0 Z " fill="#DEDEDE" transform="translate(136,58)"/>
<path d="M0 0 C0.66 0.33 1.32 0.66 2 1 C2 2.98 2 4.96 2 7 C3.98 7 5.96 7 8 7 C8 5.02 8 3.04 8 1 C8.99 1 9.98 1 11 1 C11 6.94 11 12.88 11 19 C10.01 18.67 9.02 18.34 8 18 C8 15.69 8 13.38 8 11 C6.35 11.33 4.7 11.66 3 12 C2.67 14.31 2.34 16.62 2 19 C1.01 19 0.02 19 -1 19 C-1.02683987 16.02077407 -1.04676037 13.04178705 -1.0625 10.0625 C-1.07087891 9.21236328 -1.07925781 8.36222656 -1.08789062 7.48632812 C-1.09111328 6.67744141 -1.09433594 5.86855469 -1.09765625 5.03515625 C-1.10289307 4.2862915 -1.10812988 3.53742676 -1.11352539 2.76586914 C-1 1 -1 1 0 0 Z " fill="#D5D5D5" transform="translate(112,58)"/>
<path d="M0 0 C6.875 1.875 6.875 1.875 8 3 C8.04401732 5.33291811 8.03954234 7.66700175 8 10 C8 13.76687864 8.23537317 14.91190305 10 18 C8.68 18 7.36 18 6 18 C4.25 16 4.25 16 3 14 C2.34 15.65 1.68 17.3 1 19 C0.34 19 -0.32 19 -1 19 C-1.02683987 16.02077407 -1.04676037 13.04178705 -1.0625 10.0625 C-1.07087891 9.21236328 -1.07925781 8.36222656 -1.08789062 7.48632812 C-1.09111328 6.67744141 -1.09433594 5.86855469 -1.09765625 5.03515625 C-1.10289307 4.2862915 -1.10812988 3.53742676 -1.11352539 2.76586914 C-1 1 -1 1 0 0 Z M2 5 C2 5.99 2 6.98 2 8 C2.99 8 3.98 8 5 8 C5 7.01 5 6.02 5 5 C4.01 5 3.02 5 2 5 Z " fill="#F2F2F2" transform="translate(160,58)"/>
<path d="M0 0 C0.33 1.65 0.66 3.3 1 5 C-1.64 5 -4.28 5 -7 5 C-7.33 6.98 -7.66 8.96 -8 11 C-4.5647952 13.29013653 -3.014669 13.17842973 1 13 C0.67 14.65 0.34 16.3 0 18 C-4.31064602 18.42261236 -6.32945356 18.49562128 -9.875 15.875 C-12.24329016 12.67084273 -13 10.97209416 -13 7 C-10.12562935 0.49484537 -6.95529219 -1.73882305 0 0 Z " fill="#D7D7D7" transform="translate(191,59)"/>
<path d="M0 0 C0 1.32 0 2.64 0 4 C-2.64 4 -5.28 4 -8 4 C-8.33 5.98 -8.66 7.96 -9 10 C-4.60746227 11.56272189 -4.60746227 11.56272189 0 12 C0 13.32 0 14.64 0 16 C-2.88861709 17.44430855 -4.79647701 17.37688506 -8 17 C-10.90580922 14.73992616 -12.59963294 12.97589471 -14 9.5625 C-14 5.18859784 -12.0356271 2.0356271 -9 -1 C-5.44231117 -2.4721471 -3.39194088 -1.60174986 0 0 Z " fill="#D9D9D9" transform="translate(100,60)"/>
<path d="M0 0 C1.28132812 0.00902344 2.56265625 0.01804687 3.8828125 0.02734375 C4.87023437 0.03894531 5.85765625 0.05054687 6.875 0.0625 C8.34443654 3.37605012 9.1687915 6.05805128 9.1875 9.6875 C9.21263672 10.82058594 9.21263672 10.82058594 9.23828125 11.9765625 C8.875 14.0625 8.875 14.0625 5.875 17.0625 C5.875 12.1125 5.875 7.1625 5.875 2.0625 C1.585 2.0625 -2.705 2.0625 -7.125 2.0625 C-7.125 7.0125 -7.125 11.9625 -7.125 17.0625 C-8.775 17.3925 -10.425 17.7225 -12.125 18.0625 C-12.125 17.4025 -12.125 16.7425 -12.125 16.0625 C-11.135 16.0625 -10.145 16.0625 -9.125 16.0625 C-9.125 11.1125 -9.125 6.1625 -9.125 1.0625 C-6.12186252 -0.43906874 -3.33432478 -0.03031204 0 0 Z " fill="#E8E8E8" transform="translate(12.125,18.9375)"/>
<path d="M0 0 C1.2065625 0.0309375 1.2065625 0.0309375 2.4375 0.0625 C3.86350325 4.34050976 1.89387064 6.93015922 0 10.75 C-0.33837891 11.45189453 -0.67675781 12.15378906 -1.02539062 12.87695312 C-1.86231348 14.60973706 -2.71127393 16.33669752 -3.5625 18.0625 C-3.8925 17.4025 -4.2225 16.7425 -4.5625 16.0625 C-3.65426973 13.62692428 -2.69421929 11.30054483 -1.625 8.9375 C-1.33431641 8.27878906 -1.04363281 7.62007812 -0.74414062 6.94140625 C-0.02389802 5.31200495 0.70591143 3.68683868 1.4375 2.0625 C0.1175 2.0625 -1.2025 2.0625 -2.5625 2.0625 C-2.72105469 2.64515625 -2.87960938 3.2278125 -3.04296875 3.828125 C-5.01534929 10.75869972 -7.33863689 17.60413397 -10.5625 24.0625 C-11.2225 24.3925 -11.8825 24.7225 -12.5625 25.0625 C-13.42593824 22.94125034 -14.27800648 20.81536928 -15.125 18.6875 C-15.60066406 17.50414063 -16.07632813 16.32078125 -16.56640625 15.1015625 C-17.5625 12.0625 -17.5625 12.0625 -16.5625 10.0625 C-14.9125 13.3625 -13.2625 16.6625 -11.5625 20.0625 C-10.71365234 18.02255859 -10.71365234 18.02255859 -9.84765625 15.94140625 C-9.10689985 14.1692169 -8.36600742 12.39708441 -7.625 10.625 C-7.25181641 9.72716797 -6.87863281 8.82933594 -6.49414062 7.90429688 C-6.13642578 7.05029297 -5.77871094 6.19628906 -5.41015625 5.31640625 C-5.08023682 4.52564697 -4.75031738 3.7348877 -4.41040039 2.92016602 C-3.11218622 0.07590698 -3.11218622 0.07590698 0 0 Z " fill="#DCDCDC" transform="translate(214.5625,0.9375)"/>
<path d="M0 0 C0.50789063 0.3609375 1.01578125 0.721875 1.5390625 1.09375 C7.25502292 4.97385742 7.25502292 4.97385742 14 5 C16.48538278 3.82536676 18.67394247 2.48867682 21 1 C21.33 2.32 21.66 3.64 22 5 C17.17762142 8.96123955 13.2334395 9.52825758 7 9 C3.06618651 7.39792273 0.39307538 5.58961307 -2 2 C-1.34 1.34 -0.68 0.68 0 0 Z " fill="#FBFBFB" transform="translate(79,27)"/>
<path d="M0 0 C0.125 7.75 0.125 7.75 -1 10 C-1.66 10 -2.32 10 -3 10 C-3 9.34 -3 8.68 -3 8 C-3.66 8 -4.32 8 -5 8 C-5 7.01 -5 6.02 -5 5 C-7.64 4.67 -10.28 4.34 -13 4 C-13.33 3.01 -13.66 2.02 -14 1 C-11.85420251 0.83287252 -9.70836101 0.66631 -7.5625 0.5 C-5.77005859 0.36078125 -5.77005859 0.36078125 -3.94140625 0.21875 C-1 0 -1 0 0 0 Z " fill="#F8F8F8" transform="translate(106,18)"/>
<path d="M0 0 C0.66 0.33 1.32 0.66 2 1 C1.67 2.98 1.34 4.96 1 7 C4.4352048 9.29013653 5.985331 9.17842973 10 9 C9.67 10.65 9.34 12.3 9 14 C2.6 14.36923077 2.6 14.36923077 -0.4375 12.5 C-0.953125 12.005 -1.46875 11.51 -2 11 C-1.67 10.34 -1.34 9.68 -1 9 C-1 7.68733467 -1.03457727 6.37486832 -1.0625 5.0625 C-1 2 -1 2 0 0 Z " fill="#C8C8C8" transform="translate(182,63)"/>
<path d="M0 0 C0.66 0.33 1.32 0.66 2 1 C1.67 2.98 1.34 4.96 1 7 C5.39253773 8.56272189 5.39253773 8.56272189 10 9 C10 10.32 10 11.64 10 13 C7.19084526 14.40457737 5.11189466 14.24895157 2 14 C-0.375 12.5 -0.375 12.5 -2 11 C-1.67 10.34 -1.34 9.68 -1 9 C-1 7.68733467 -1.03457727 6.37486832 -1.0625 5.0625 C-1 2 -1 2 0 0 Z " fill="#CFCFCF" transform="translate(90,63)"/>
<path d="M0 0 C0.10957031 0.61488281 0.21914063 1.22976562 0.33203125 1.86328125 C0.49058594 2.67152344 0.64914062 3.47976562 0.8125 4.3125 C0.96332031 5.11300781 1.11414063 5.91351563 1.26953125 6.73828125 C2.07572236 9.23445587 3.02052002 10.32422106 5 12 C4.67 12.99 4.34 13.98 4 15 C0.06360824 13.68786941 -0.28653597 12.17198478 -2.1875 8.5625 C-2.98220703 7.07943359 -2.98220703 7.07943359 -3.79296875 5.56640625 C-5 3 -5 3 -5 1 C-1.125 -0 -1.125 -0 0 0 Z " fill="#FAFAFA" transform="translate(280,2)"/>
<path d="M0 0 C0.99386719 0.00902344 1.98773438 0.01804687 3.01171875 0.02734375 C4.15060547 0.04474609 4.15060547 0.04474609 5.3125 0.0625 C5.3125 0.7225 5.3125 1.3825 5.3125 2.0625 C1.6825 2.3925 -1.9475 2.7225 -5.6875 3.0625 C-5.6875 3.3925 -5.6875 3.7225 -5.6875 4.0625 C-3.3775 4.7225 -1.0675 5.3825 1.3125 6.0625 C0.9825 6.7225 0.6525 7.3825 0.3125 8.0625 C-2.6575 7.7325 -5.6275 7.4025 -8.6875 7.0625 C-8.6875 5.0825 -8.6875 3.1025 -8.6875 1.0625 C-5.53819107 0.01273036 -3.29935544 -0.03881595 0 0 Z " fill="#D8D8D8" transform="translate(99.6875,16.9375)"/>
<path d="M0 0 C0 0.99 0 1.98 0 3 C0.33 3.639375 0.66 4.27875 1 4.9375 C2 7 2 7 2 11 C-1.16115776 9.63016497 -1.9927092 9.0109362 -4 6 C-4.66 7.65 -5.32 9.3 -6 11 C-6.66 11 -7.32 11 -8 11 C-8 10.34 -8 9.68 -8 9 C-7.34 9 -6.68 9 -6 9 C-6 7.02 -6 5.04 -6 3 C-5.38125 2.87625 -4.7625 2.7525 -4.125 2.625 C-1.80879168 2.12802644 -1.80879168 2.12802644 0 0 Z " fill="#D2D2D2" transform="translate(167,66)"/>
<path d="M0 0 C1.98 0 3.96 0 6 0 C6 0.66 6 1.32 6 2 C4.68 2 3.36 2 2 2 C4.64 7.28 7.28 12.56 10 18 C9.34 18 8.68 18 8 18 C6.46935061 15.38029207 4.95030252 12.75498357 3.4375 10.125 C2.99986328 9.37863281 2.56222656 8.63226563 2.11132812 7.86328125 C1.70205078 7.14785156 1.29277344 6.43242188 0.87109375 5.6953125 C0.48880615 5.03547363 0.10651855 4.37563477 -0.28735352 3.69580078 C-0.52252686 3.13618652 -0.7577002 2.57657227 -1 2 C-0.67 1.34 -0.34 0.68 0 0 Z " fill="#D5D5D5" transform="translate(273,1)"/>
<path d="M0 0 C2.70608417 1.35304209 2.96183047 2.80966544 4.125 5.5625 C4.47820312 6.38878906 4.83140625 7.21507812 5.1953125 8.06640625 C5.46085938 8.70449219 5.72640625 9.34257812 6 10 C6.66 8.35 7.32 6.7 8 5 C8.66 5.66 9.32 6.32 10 7 C7.25 13.875 7.25 13.875 5 15 C4.16260219 12.8765984 3.33019717 10.7512272 2.5 8.625 C1.80390625 6.84996094 1.80390625 6.84996094 1.09375 5.0390625 C0 2 0 2 0 0 Z " fill="#EAEAEA" transform="translate(197,11)"/>
<path d="M0 0 C2.475 0.495 2.475 0.495 5 1 C5 5.29 5 9.58 5 14 C4.34 14 3.68 14 3 14 C3 10.04 3 6.08 3 2 C2.01 2 1.02 2 0 2 C0 1.34 0 0.68 0 0 Z " fill="#E9E9E9" transform="translate(0,1)"/>
<path d="M0 0 C0.66 0 1.32 0 2 0 C2.92015848 2.76047543 3.19267245 4.63362269 3.25 7.5 C3.27578125 8.2734375 3.3015625 9.046875 3.328125 9.84375 C3 12 3 12 0 15 C0 10.05 0 5.1 0 0 Z " fill="#F1F1F1" transform="translate(18,21)"/>
<path d="M0 0 C0.66 0 1.32 0 2 0 C2.91297308 4.97063121 2.91297308 9.02936879 2 14 C1.34 14 0.68 14 0 14 C0 9.38 0 4.76 0 0 Z " fill="#EDEDED" transform="translate(111,61)"/>
<path d="M0 0 C2.31 0.66 4.62 1.32 7 2 C7 2.99 7 3.98 7 5 C5.33333333 5 3.66666667 5 2 5 C2 5.99 2 6.98 2 8 C2.99 8.33 3.98 8.66 5 9 C3.68 9 2.36 9 1 9 C1.33 6.69 1.66 4.38 2 2 C1.01 2.33 0.02 2.66 -1 3 C-0.67 2.01 -0.34 1.02 0 0 Z " fill="#CBCBCB" transform="translate(160,58)"/>
<path d="M0 0 C0.66 0.33 1.32 0.66 2 1 C2.4140625 3.72265625 2.4140625 3.72265625 2.625 7.0625 C2.69976562 8.16722656 2.77453125 9.27195312 2.8515625 10.41015625 C2.90054688 11.26480469 2.94953125 12.11945313 3 13 C4.65 13.33 6.3 13.66 8 14 C8 14.66 8 15.32 8 16 C5.625 16.125 5.625 16.125 3 16 C1 14 1 14 0.8046875 11.3984375 C0.82789063 10.40070313 0.85109375 9.40296875 0.875 8.375 C0.89304688 7.37210937 0.91109375 6.36921875 0.9296875 5.3359375 C0.95289063 4.56507812 0.97609375 3.79421875 1 3 C0.34 3 -0.32 3 -1 3 C-0.67 2.01 -0.34 1.02 0 0 Z " fill="#C4C4C4" transform="translate(136,58)"/>
<path d="M0 0 C0.66 0 1.32 0 2 0 C2.99 2.97 3.98 5.94 5 9 C3.68 8.67 2.36 8.34 1 8 C-0.3125 5.0625 -0.3125 5.0625 -1 2 C-0.67 1.34 -0.34 0.68 0 0 Z " fill="#FCFCFC" transform="translate(255,26)"/>
<path d="M0 0 C0.99 0 1.98 0 3 0 C3 1.98 3 3.96 3 6 C5.31 6 7.62 6 10 6 C10 6.33 10 6.66 10 7 C8.72125 6.95875 7.4425 6.9175 6.125 6.875 C3.98128508 6.75787127 3.98128508 6.75787127 2 7 C1.34 7.66 0.68 8.32 0 9 C-0.87890625 2.84765625 -0.87890625 2.84765625 -1 1 C-0.67 0.67 -0.34 0.34 0 0 Z " fill="#C3C3C3" transform="translate(203,59)"/>
<path d="M0 0 C2 2 2 2 2 5 C-1.63 5 -5.26 5 -9 5 C-8.67 4.01 -8.34 3.02 -8 2 C-5.36 2.33 -2.72 2.66 0 3 C0 2.01 0 1.02 0 0 Z " fill="#D8D8D8" transform="translate(249,19)"/>
<path d="M0 0 C2.47128202 0.9566253 3.72986449 1.45972898 4.9375 3.875 C5.0225942 6.76820282 3.88243538 7.89167237 2 10 C1.34 9.67 0.68 9.34 0 9 C0.185625 8.443125 0.37125 7.88625 0.5625 7.3125 C1.07551165 4.600867 0.6640724 2.65628961 0 0 Z " fill="#EFEFEF" transform="translate(99,24)"/>
<path d="M0 0 C1.32 0.66 2.64 1.32 4 2 C3.6875 3.875 3.6875 3.875 3 6 C2.01 6.66 1.02 7.32 0 8 C-0.99 7.34 -1.98 6.68 -3 6 C-1.68 6 -0.36 6 1 6 C0.67 4.02 0.34 2.04 0 0 Z " fill="#E9E9E9" transform="translate(164,61)"/>
<path d="M0 0 C3.5 0.3125 3.5 0.3125 7 1 C7.33 1.66 7.66 2.32 8 3 C7.113125 2.95875 6.22625 2.9175 5.3125 2.875 C2.02722987 2.99897246 -0.05449295 3.61387904 -3 5 C-1.125 1.125 -1.125 1.125 0 0 Z " fill="#E3E3E3" transform="translate(91,59)"/>
<path d="M0 0 C0.66 0.33 1.32 0.66 2 1 C2 2.98 2 4.96 2 7 C3.65 7 5.3 7 7 7 C7 7.33 7 7.66 7 8 C5.02 8 3.04 8 1 8 C1 6.35 1 4.7 1 3 C0.34 3 -0.32 3 -1 3 C-0.67 2.01 -0.34 1.02 0 0 Z " fill="#BABABA" transform="translate(112,58)"/>
</svg>
